<svg width="17" height="17" viewBox="0 0 17 17" fill="none" xmlns="http://www.w3.org/2000/svg">
<g clip-path="url(#clip0_34_253)">
<path d="M8.5 17C3.81273 17 0 13.1869 0 8.5C0 3.81314 3.81273 0 8.5 0C13.1873 0 17 3.81314 17 8.5C17 13.1869 13.1873 17 8.5 17ZM8.5 1.23349C4.4932 1.23349 1.23349 4.4932 1.23349 8.5C1.23349 12.5068 4.4932 15.7665 8.5 15.7665C12.5068 15.7665 15.7665 12.5068 15.7665 8.5C15.7665 4.4932 12.5068 1.23349 8.5 1.23349Z" fill="black"/>
<path d="M12.0327 12.7461C11.9517 12.7461 11.8715 12.7302 11.7966 12.6992C11.7218 12.6683 11.6538 12.6229 11.5965 12.5656L4.53103 5.49974C4.47212 5.44285 4.42514 5.37479 4.39281 5.29955C4.36049 5.2243 4.34348 5.14337 4.34277 5.06148C4.34205 4.97959 4.35766 4.89838 4.38867 4.82258C4.41968 4.74679 4.46548 4.67793 4.52338 4.62002C4.58129 4.56211 4.65015 4.51631 4.72595 4.4853C4.80174 4.45429 4.88296 4.43869 4.96485 4.4394C5.04674 4.44011 5.12767 4.45713 5.20291 4.48945C5.27816 4.52177 5.34621 4.56876 5.40311 4.62766L12.469 11.6935C12.5551 11.7798 12.6138 11.8897 12.6375 12.0093C12.6613 12.1289 12.649 12.2528 12.6023 12.3655C12.5557 12.4781 12.4766 12.5744 12.3752 12.6422C12.2739 12.7099 12.1547 12.7461 12.0327 12.7461Z" fill="black"/>
<path d="M4.96688 12.7461C4.84498 12.746 4.72584 12.7098 4.62452 12.642C4.5232 12.5742 4.44423 12.4779 4.39759 12.3653C4.35096 12.2527 4.33875 12.1287 4.3625 12.0092C4.38625 11.8896 4.4449 11.7798 4.53105 11.6935L11.5965 4.62766C11.7121 4.51196 11.869 4.44694 12.0326 4.4469C12.1962 4.44686 12.3531 4.51181 12.4688 4.62745C12.5845 4.7431 12.6495 4.89997 12.6495 5.06355C12.6496 5.22714 12.5846 5.38404 12.469 5.49974L5.40313 12.5656C5.34583 12.6229 5.27781 12.6683 5.20296 12.6992C5.12811 12.7302 5.04789 12.7461 4.96688 12.7461Z" fill="black"/>
</g>
<defs>
<clipPath id="clip0_34_253">
<rect width="17" height="17" fill="white"/>
</clipPath>
</defs>
</svg>
