<svg width="934" height="934" viewBox="0 0 934 934" fill="none" xmlns="http://www.w3.org/2000/svg">
<g clip-path="url(#clip0_37_247)">
<path d="M97.7934 291.751H543.785C569.72 291.751 594.594 302.056 612.934 320.396C631.273 338.735 641.578 363.609 641.578 389.544V835.536C641.578 861.471 631.273 886.353 612.934 904.692C594.594 923.032 569.72 933.329 543.785 933.337H97.7934C71.8582 933.337 46.9842 923.031 28.6446 904.692C10.2972 886.345 0 861.471 0 835.536V389.544C0 363.602 10.298 338.728 28.6371 320.388C46.9846 302.048 71.8582 291.743 97.7934 291.743V291.751Z" fill="black"/>
<path d="M835.537 -0.00354004H389.545C363.625 0.0623781 338.788 10.3897 320.462 28.7142C302.129 47.0395 291.81 71.8827 291.744 97.7973V233.333L543.784 233.34C585.188 233.435 624.863 249.923 654.138 279.198C683.413 308.473 699.9 348.148 700.003 389.546V641.586H835.539C861.451 641.52 886.295 631.2 904.622 612.868C922.947 594.543 933.274 569.705 933.332 543.792V97.8009C933.273 71.8882 922.946 47.0442 904.622 28.7178C886.296 10.3925 861.453 0.0656619 835.539 3.62721e-05L835.537 -0.00354004Z" fill="black"/>
</g>
<defs>
<clipPath id="clip0_37_247">
<rect width="933.333" height="933.333" fill="white"/>
</clipPath>
</defs>
</svg>
