<svg width="19" height="19" viewBox="0 0 19 19" fill="none" xmlns="http://www.w3.org/2000/svg">
<path d="M6.32194 3.71239H13.052C13.1853 3.71247 13.3143 3.75961 13.4162 3.84543C13.5181 3.93126 13.5865 4.05033 13.6093 4.18158L14.3681 8.55717L5.00485 8.55726L5.76357 4.18166C5.78632 4.05015 5.85493 3.93092 5.95704 3.84508C6.05923 3.75926 6.18846 3.71222 6.32194 3.71239Z" fill="#637380"/>
<path fill-rule="evenodd" clip-rule="evenodd" d="M15.2514 9.74121C15.1638 9.65436 15.0595 9.58617 14.9447 9.54083C14.8191 9.49106 14.6852 9.46574 14.55 9.46634H4.69086C4.55577 9.46566 4.42178 9.49097 4.29624 9.54083C4.18143 9.58609 4.07711 9.65427 3.98948 9.74121C3.90596 9.82439 3.84169 9.92488 3.80138 10.0357C3.75919 10.1495 3.74368 10.2717 3.75612 10.3925L4.15449 13.9653C4.16694 14.0743 4.20367 14.1791 4.26197 14.272C4.32206 14.3675 4.39902 14.4512 4.48928 14.5188C4.58431 14.5904 4.69034 14.6462 4.80328 14.6837C4.92141 14.7234 5.04525 14.7436 5.16986 14.7437H14.0699C14.1945 14.7436 14.3183 14.7234 14.4364 14.6837C14.5502 14.6464 14.6571 14.5907 14.7529 14.5188C14.8429 14.4518 14.9199 14.369 14.9802 14.2745C15.0385 14.1816 15.0752 14.0767 15.0877 13.9677L15.4861 10.3924C15.4997 10.2719 15.4855 10.1499 15.4445 10.0357C15.4027 9.92443 15.3368 9.82388 15.2514 9.74121ZM12.0464 12.9461C12.0739 12.8962 12.0898 12.8406 12.0929 12.7837L12.1453 11.7194C12.1484 11.6612 12.1379 11.603 12.1148 11.5495C12.0911 11.4965 12.0566 11.449 12.0134 11.4103C11.9682 11.3689 11.9156 11.3365 11.8582 11.315C11.7962 11.2914 11.7304 11.2794 11.664 11.2795C11.5968 11.2797 11.5302 11.2917 11.4673 11.315C11.4078 11.3369 11.3528 11.3691 11.3047 11.4103C11.2585 11.449 11.2203 11.4963 11.1923 11.5495C11.1656 11.6023 11.151 11.6603 11.1495 11.7194L11.13 12.3584H8.11198L8.09246 11.7194C8.09068 11.6602 8.07559 11.6022 8.04849 11.5495C8.02011 11.4961 7.98149 11.4488 7.93479 11.4103C7.88672 11.3691 7.83166 11.3369 7.77234 11.315C7.70935 11.2917 7.6427 11.2797 7.57563 11.2795C7.50923 11.2794 7.44335 11.2914 7.3813 11.315C7.32394 11.3365 7.27127 11.3689 7.2261 11.4103C7.18331 11.4492 7.14922 11.4966 7.12595 11.5495C7.10055 11.6037 7.08845 11.6632 7.09058 11.7231L7.14308 12.7837C7.14606 12.8406 7.16192 12.8962 7.18945 12.9461C7.21732 12.9968 7.25465 13.0417 7.29948 13.0781C7.3484 13.1169 7.4038 13.1467 7.46321 13.1661C7.52398 13.1877 7.58799 13.1989 7.65259 13.1991H11.5894C11.654 13.1989 11.718 13.1877 11.7788 13.1661C11.8361 13.1461 11.8893 13.1163 11.9365 13.0781C11.9812 13.0416 12.0185 12.9968 12.0464 12.9461Z" fill="#A9B6C0"/>
</svg>
