<svg width="24" height="24" viewBox="0 0 24 24" fill="none" xmlns="http://www.w3.org/2000/svg">
<path fill-rule="evenodd" clip-rule="evenodd" d="M2 5.33333C2 3.51251 3.55083 2 5.36364 2H7.72727C9.59068 2 11 3.56383 11 5.33333V7.66667C11 9.48749 9.44917 11 7.63636 11H5.36364C5.34017 11 5.31671 10.9992 5.2933 10.9975C3.57427 10.8763 2 9.52226 2 7.57692V5.33333ZM13 5.33333C13 3.51251 14.5508 2 16.3636 2H18.7273C20.5907 2 22 3.56383 22 5.33333V7.66667C22 9.48749 20.4492 11 18.6364 11H16.3636C14.5508 11 13 9.48749 13 7.66667V5.33333ZM2 16.3333C2 14.5125 3.55083 13 5.36364 13H7.72727C9.59068 13 11 14.5638 11 16.3333V18.6667C11 20.4875 9.44917 22 7.63636 22H5.36364C5.34017 22 5.31671 21.9992 5.2933 21.9975C3.59974 21.8781 2 20.5453 2 18.6667V16.3333ZM13 16.3333C13 14.5125 14.5508 13 16.3636 13H18.7273C20.5907 13 22 14.5638 22 16.3333V18.6667C22 20.4875 20.4492 22 18.6364 22H16.3636C14.5508 22 13 20.4875 13 18.6667V16.3333Z" fill="black"/>
</svg>
