<svg width="934" height="934" viewBox="0 0 934 934" fill="none" xmlns="http://www.w3.org/2000/svg">
<rect x="66.6956" y="66.6979" width="799.942" height="799.937" rx="183" fill="#E6E6E6"/>
<path d="M332.268 690.667C265.591 690.667 235.2 574.563 235.2 466.667C235.2 358.771 265.591 242.667 332.268 242.667H421.867C432.539 242.667 442.398 248.359 447.736 257.599C453.07 266.838 453.07 278.224 447.736 287.468C442.398 296.708 432.539 302.4 421.867 302.4H333.539C321.966 309.197 294.935 365.493 294.935 466.667C294.935 567.84 321.966 624.147 333.539 630.933H421.867C432.539 630.933 442.398 636.626 447.736 645.865C453.07 655.11 453.07 666.496 447.736 675.735C442.398 684.974 432.539 690.667 421.867 690.667H332.268Z" fill="#303030"/>
<path d="M427.388 496.533C421.534 481.361 420.211 464.815 423.591 448.908C426.972 432.996 434.909 418.413 446.43 406.935L527.742 326.071C534.002 319.8 542.726 316.633 551.549 317.425C560.377 318.222 568.393 322.894 573.434 330.18C577.387 336.258 579.085 343.529 578.241 350.727C577.398 357.925 574.059 364.607 568.809 369.601L501.612 436.799L668.265 436.804C678.937 436.804 688.796 442.497 694.129 451.736C699.468 460.975 699.468 472.361 694.129 481.6C688.796 490.839 678.936 496.532 668.265 496.532H501.532L569.401 564.48C574.385 569.329 577.557 575.74 578.386 582.641C579.214 589.542 577.651 596.521 573.958 602.412C569.052 609.985 560.984 614.938 552.005 615.881C543.031 616.824 534.109 613.657 527.74 607.267L447.698 527.147C438.818 518.511 431.892 508.073 427.386 496.532L427.388 496.533Z" fill="#303030"/>
</svg>
