<svg width="19" height="19" viewBox="0 0 19 19" fill="none" xmlns="http://www.w3.org/2000/svg">
<path d="M15.2399 8.73259C15.858 8.13433 15.5191 7.09737 14.6617 6.95786L12.4084 6.63878C12.0694 6.59885 11.7702 6.3795 11.6307 6.08043L10.6137 4.04643C10.2348 3.26874 9.13806 3.26874 8.75929 4.04643L7.74234 6.08043C7.5828 6.37949 7.30364 6.59886 6.96465 6.63878L4.7113 6.95786C3.85392 7.07748 3.51478 8.13433 4.13309 8.73259L5.76831 10.3279C6.00756 10.5671 6.12717 10.9061 6.06736 11.2452L5.68845 13.4786C5.5488 14.3161 6.42623 14.9741 7.18401 14.5754L9.198 13.5185C9.49706 13.3589 9.85605 13.3589 10.1551 13.5185L12.1691 14.5754C12.9269 14.9741 13.8242 14.3361 13.6647 13.4786L13.3057 11.2452C13.2459 10.9063 13.3655 10.5673 13.6047 10.3279L15.2399 8.73259Z" fill="#FEA82E"/>
</svg>
