<svg width="19" height="19" viewBox="0 0 19 19" fill="none" xmlns="http://www.w3.org/2000/svg">
<path fill-rule="evenodd" clip-rule="evenodd" d="M7.59004 5.00575H11.7827C12.1298 5.00575 12.4116 4.72396 12.4116 4.37686C12.4116 4.02975 12.1298 3.74796 11.7827 3.74796H7.59004C7.24294 3.74796 6.96115 4.02975 6.96115 4.37686C6.96115 4.72396 7.24294 5.00575 7.59004 5.00575Z" fill="#656E75"/>
<path fill-rule="evenodd" clip-rule="evenodd" d="M5.07449 7.10205V14.0199C5.07449 15.1774 6.01325 16.1162 7.17079 16.1162H12.2019C13.3595 16.1162 14.2982 15.1774 14.2982 14.0199V7.10205H14.988C15.3016 7.10205 15.556 6.82026 15.556 6.47316C15.556 6.12606 15.3016 5.84427 14.988 5.84427H4.38496C4.07135 5.84427 3.81689 6.12606 3.81689 6.47316C3.81689 6.82026 4.07135 7.10205 4.38496 7.10205H5.07449ZM8.00932 8.56947V13.6006C8.00932 13.832 8.19714 14.0199 8.42858 14.0199C8.66002 14.0199 8.84784 13.832 8.84784 13.6006V8.56947C8.84784 8.33803 8.66002 8.15021 8.42858 8.15021C8.19714 8.15021 8.00932 8.33803 8.00932 8.56947ZM10.5249 8.56947V13.6006C10.5249 13.832 10.7127 14.0199 10.9441 14.0199C11.1756 14.0199 11.3634 13.832 11.3634 13.6006V8.56947C11.3634 8.33803 11.1756 8.15021 10.9441 8.15021C10.7127 8.15021 10.5249 8.33803 10.5249 8.56947Z" fill="#B8BCC0"/>
<path d="M8.00932 8.56947V13.6006C8.00932 13.832 8.19714 14.0199 8.42858 14.0199C8.66002 14.0199 8.84784 13.832 8.84784 13.6006V8.56947C8.84784 8.33803 8.66002 8.15021 8.42858 8.15021C8.19714 8.15021 8.00932 8.33803 8.00932 8.56947Z" fill="#B8BCC0"/>
<path d="M10.5249 8.56947V13.6006C10.5249 13.832 10.7127 14.0199 10.9441 14.0199C11.1756 14.0199 11.3634 13.832 11.3634 13.6006V8.56947C11.3634 8.33803 11.1756 8.15021 10.9441 8.15021C10.7127 8.15021 10.5249 8.33803 10.5249 8.56947Z" fill="#B8BCC0"/>
</svg>
