<svg width="24" height="24" viewBox="0 0 24 24" fill="none" xmlns="http://www.w3.org/2000/svg">
<path fill-rule="evenodd" clip-rule="evenodd" d="M7.81816 2.90937C7.81816 2.45484 8.1818 2.00031 8.72725 2.00031H15.2727C15.8181 2.00031 16.1818 2.45484 16.1818 2.90937C16.1818 3.45481 15.8181 3.81843 15.2727 3.81843H8.72725C8.1818 3.81843 7.81816 3.45481 7.81816 2.90937ZM2 6.18204C2 5.72751 2.36363 5.27297 2.90909 5.27297H21.0908C21.6363 5.27297 22 5.72751 22 6.18204C22 6.72748 21.6363 7.09111 21.0908 7.09111H19.8182V17.8181C19.8182 20.1817 17.9999 21.9997 15.6363 21.9997H8.36362C5.99999 21.9997 4.18181 20.0908 4.18181 17.7271V7.09111H2.90909C2.36363 7.09111 2 6.72748 2 6.18204ZM5.99999 7.09111V17.7271C5.99999 19.1816 7.09089 20.1817 8.36362 20.1817H15.6363C16.909 20.1817 17.9999 19.1817 17.9999 17.8181V7.09111H5.99999ZM9.54544 9.45465C10.0909 9.45465 10.4545 9.90919 10.4545 10.3637V16.9999C10.4545 17.5453 10.0909 17.9089 9.54544 17.9089C8.99999 17.9089 8.63635 17.5453 8.63635 16.9999V10.3637C8.63635 9.90919 8.99999 9.45465 9.54544 9.45465ZM14.4545 9.45465C14.9999 9.45465 15.3636 9.90919 15.3636 10.3637V16.9999C15.3636 17.5453 14.9999 17.9089 14.4545 17.9089C13.909 17.9089 13.5454 17.5453 13.5454 16.9999V10.3637C13.5454 9.90919 13.909 9.45465 14.4545 9.45465Z" fill="black"/>
</svg>
